<?xml version="1.0" encoding="utf-8"?>
<!-- Generator: Adobe Illustrator 16.0.3, SVG Export Plug-In . SVG Version: 6.00 Build 0)  -->
<!DOCTYPE svg PUBLIC "-//W3C//DTD SVG 1.1//EN" "http://www.w3.org/Graphics/SVG/1.1/DTD/svg11.dtd">
<svg version="1.1"
	 id="svg1570" xmlns:dc="http://purl.org/dc/elements/1.1/" xmlns:cc="http://creativecommons.org/ns#" xmlns:rdf="http://www.w3.org/1999/02/22-rdf-syntax-ns#" xmlns:svg="http://www.w3.org/2000/svg" xmlns:sodipodi="http://sodipodi.sourceforge.net/DTD/sodipodi-0.dtd" xmlns:inkscape="http://www.inkscape.org/namespaces/inkscape" sodipodi:docname="codeunicorns.winw1.svg" inkscape:version="0.92.2 (5c3e80d, 2017-08-06)"
	 xmlns="http://www.w3.org/2000/svg" xmlns:xlink="http://www.w3.org/1999/xlink" x="0px" y="0px" width="595.275px"
	 height="841.89px" viewBox="0 0 595.275 841.89" enable-background="new 0 0 595.275 841.89" xml:space="preserve">
<sodipodi:namedview  showguides="false" showgrid="false" inkscape:cy="575.69443" inkscape:cx="432.22277" inkscape:zoom="5.6" borderopacity="1.0" bordercolor="#666666" pagecolor="#ffffff" id="base" inkscape:window-maximized="1" inkscape:window-y="-13" inkscape:current-layer="layer1" inkscape:window-x="-13" inkscape:pageshadow="2" inkscape:document-units="mm" inkscape:pageopacity="0.0" inkscape:window-height="2035" inkscape:window-width="3840">
	</sodipodi:namedview>
<path id="rect2198-6" fill="#E1ACFF" d="M240.045,330.538H355.23c11.245,0,20.36,9.115,20.36,20.359v115.186
	c0,11.244-9.115,20.359-20.36,20.359H240.045c-11.245,0-20.36-9.115-20.36-20.359V350.897
	C219.685,339.653,228.8,330.538,240.045,330.538z"/>
<path id="path2193" inkscape:connector-curvature="0" fill="none" stroke="#000000" stroke-width="0.7" stroke-linecap="round" stroke-linejoin="round" d="
	M284.528,430.99c0,0-1.839-0.525-5.467,0.996c-3.628,1.521-8.146,6.578-13.39,6.648c-5.243,0.07-26.006-11.705-15.73-20.53
	c10.276-8.824,11.61-25.327,11.61-25.327 M297.014,413.61c0,0,4.723,14.485-12.713,17.377"/>
<path id="path2203-5" fill="none" stroke="#000000" stroke-width="0.7024" stroke-linecap="round" stroke-linejoin="round" d="
	M274.132,382.123c-3.015,1.479-9.258-3.219-13.944-10.495c-4.686-7.275-6.041-14.372-3.025-15.852s9.258,3.219,13.944,10.494
	S277.147,380.644,274.132,382.123z"/>
<path id="path2199" inkscape:connector-curvature="0" fill="none" stroke="#000000" stroke-width="0.7" stroke-linecap="round" stroke-linejoin="round" d="
	M284.528,430.99c0,0,1.523,18.184-3.972,20.104"/>
<path id="path2204" inkscape:connector-curvature="0" fill="#FFFFFF" d="M290.012,379.94l5.114-9.28l-2.462-6.866l-9.518-3.078
	l-7.244,2.042l-9.707,6.813l7.529,4.925L290.012,379.94z"/>
<path id="path2206" inkscape:connector-curvature="0" fill="#FFFCFF" d="M306.8,372.897l3.982,0.394l3.75,5.959l4.955,17.612
	l5.96,5.558l4.486-2.143l5.089-0.871l9.644,4.889l4.888,4.821l1.139,3.951l-3.951,2.276l-6.711,0.677l-0.722,2.604l-13.393,0.135
	l-8.571-3.349l-9.979-16.808l-4.955-15.67l-0.715-3.497L306.8,372.897z"/>
<path id="path2203" fill="none" stroke="#000000" stroke-width="0.7072" stroke-linecap="round" stroke-linejoin="round" d="
	M293.365,384.276c3.016,1.03,9.259-4.6,13.944-12.574c4.686-7.974,6.04-15.273,3.025-16.303c-3.016-1.03-9.258,4.6-13.944,12.573
	C291.705,375.947,290.351,383.247,293.365,384.276z"/>
<path id="path1509" inkscape:connector-curvature="0" fill="#FFFFFF" stroke="#000000" stroke-width="0.7" stroke-linecap="round" stroke-linejoin="round" d="
	M267.827,368.36c0,0-20.735,14.511-8.222,23.052s16.771-8.761,16.771-8.761s-1.808,13.462,15.472-4.68"/>
<path id="path1511" inkscape:connector-curvature="0" fill="none" stroke="#000000" stroke-width="0.7" stroke-linecap="round" stroke-linejoin="round" d="
	M340.03,416.021c0,0,20.365-0.055,4.012-11.873s-13.705,1.92-21.285-3.675c-7.581-5.594-6.29-30.488-15.957-27.575"/>
<path id="path1515" inkscape:connector-curvature="0" fill="#FFFFFF" stroke="#000000" stroke-width="0.7" stroke-linecap="round" stroke-linejoin="round" d="
	M275.901,362.757c0,0,12.462-8.095,19.505,6.336"/>
<path id="path2195" sodipodi:nodetypes="cccc" inkscape:connector-curvature="0" fill="#E0FFFF" stroke="#000000" stroke-width="0.7303" stroke-linecap="round" stroke-linejoin="round" d="
	M274.527,379.085l-17.772-32.212l26.775,19.501C278.329,367.481,274.826,371.004,274.527,379.085z"/>
<path id="path1517" inkscape:connector-curvature="0" fill="none" stroke="#000000" stroke-width="0.7" stroke-linejoin="round" d="
	M301.696,379.437c0,0,8.146,39.231,24.813,39.606c16.666,0.374,14.657-3.046,14.657-3.046"/>
<ellipse id="path1521" fill="#F1FFFF" stroke="#000000" stroke-width="0.7" stroke-linecap="round" stroke-linejoin="round" cx="282.455" cy="401.486" rx="3.979" ry="4.729"/>
<g enable-background="new    ">
	<path d="M248.506,463.66c-0.341-1.047-0.972-1.571-1.893-1.571c-0.569,0-1.029,0.331-1.381,0.991
		c-0.29,0.587-0.434,1.235-0.434,1.945c0,0.799,0.178,1.484,0.535,2.058c0.357,0.574,0.866,0.86,1.528,0.86
		c0.414,0,0.786-0.192,1.117-0.579c0.269-0.3,0.496-0.717,0.683-1.254l1.598,0.954c-0.259,0.873-0.706,1.581-1.342,2.123
		c-0.636,0.543-1.337,0.813-2.102,0.813c-1.096,0-2.03-0.448-2.8-1.347c-0.771-0.897-1.155-2.007-1.155-3.329
		c0-1.434,0.336-2.649,1.008-3.647c0.713-1.072,1.649-1.608,2.808-1.608c1.583,0,2.761,0.897,3.537,2.693L248.506,463.66z"/>
	<path d="M254.541,460.087c1.22,0,2.187,0.468,2.901,1.402c0.713,0.936,1.07,2.146,1.07,3.629c0,1.409-0.37,2.575-1.109,3.498
		S255.709,470,254.541,470c-1.221,0-2.201-0.495-2.94-1.486c-0.739-0.992-1.109-2.235-1.109-3.732c0-1.347,0.393-2.466,1.179-3.357
		C252.456,460.534,253.413,460.087,254.541,460.087z M254.618,467.962c0.631,0,1.117-0.303,1.458-0.907
		c0.341-0.605,0.512-1.288,0.512-2.049c0-0.785-0.188-1.468-0.566-2.048c-0.378-0.58-0.882-0.87-1.513-0.87
		c-0.651,0-1.174,0.3-1.567,0.898c-0.331,0.536-0.496,1.216-0.496,2.038c0,0.812,0.194,1.503,0.582,2.077
		C253.416,467.675,253.945,467.962,254.618,467.962z"/>
	<path d="M264.918,456.477h1.846v13.225h-1.861l0.015-0.879c-0.645,0.761-1.362,1.141-2.152,1.141c-1.124,0-2.002-0.48-2.636-1.443
		c-0.593-0.899-0.889-2.036-0.889-3.41c0-1.337,0.317-2.499,0.952-3.486c0.696-1.062,1.581-1.593,2.651-1.593
		c0.718,0,1.409,0.325,2.075,0.973V456.477z M263.134,468c0.558,0,1.008-0.319,1.35-0.957c0.289-0.588,0.434-1.226,0.434-1.914
		c0-0.825-0.129-1.508-0.388-2.045c-0.321-0.65-0.796-0.977-1.427-0.977c-0.61,0-1.096,0.301-1.458,0.901
		c-0.3,0.538-0.45,1.201-0.45,1.988c0,0.789,0.155,1.464,0.465,2.027C262.022,467.674,262.514,468,263.134,468z"/>
	<path d="M269.914,465.456c0.186,0.811,0.439,1.391,0.76,1.739c0.362,0.399,0.879,0.599,1.551,0.599
		c0.424,0,0.796-0.118,1.117-0.355c0.155-0.112,0.444-0.411,0.869-0.897l1.536,1.066c-0.837,1.571-2.058,2.356-3.661,2.356
		c-1.241,0-2.239-0.449-2.994-1.347c-0.755-0.897-1.133-2.107-1.133-3.629c0-0.772,0.083-1.449,0.249-2.029
		c0.165-0.58,0.434-1.106,0.807-1.58c0.713-0.923,1.686-1.385,2.917-1.385c1.262,0,2.229,0.543,2.901,1.628
		c0.589,0.972,0.884,2.251,0.884,3.834H269.914z M273.667,463.847c-0.217-1.385-0.807-2.076-1.769-2.076
		c-0.931,0-1.582,0.691-1.955,2.076H273.667z"/>
	<path d="M276.878,460.312h1.893v5.648c0,0.549,0.132,0.995,0.396,1.338c0.264,0.343,0.623,0.514,1.078,0.514
		c0.889,0,1.458-0.551,1.706-1.654c0.104-0.501,0.155-1.484,0.155-2.951v-2.895h1.893v9.39h-1.893v-0.954
		c-0.486,0.424-0.864,0.711-1.132,0.86c-0.393,0.199-0.838,0.3-1.334,0.3c-1.841,0-2.762-1.197-2.762-3.592V460.312z"/>
	<path d="M285.643,460.349h1.908l-0.016,1.104c0.424-0.91,1.236-1.365,2.436-1.365c0.817,0,1.438,0.299,1.861,0.897
		c0.424,0.599,0.636,1.403,0.636,2.413v6.285h-1.877v-5.574c0-0.562-0.12-1.01-0.359-1.347c-0.218-0.361-0.556-0.543-1.013-0.543
		c-0.593,0-1.04,0.331-1.341,0.992c-0.229,0.549-0.343,1.209-0.343,1.982v4.489h-1.893V460.349z"/>
	<path d="M294.33,456.608h1.877v2.245h-1.877V456.608z M294.33,460.312h1.877v9.408h-1.877V460.312z"/>
	<path d="M302.815,463.66c-0.341-1.047-0.972-1.571-1.893-1.571c-0.568,0-1.029,0.331-1.381,0.991
		c-0.289,0.587-0.434,1.235-0.434,1.945c0,0.799,0.178,1.484,0.535,2.058c0.357,0.574,0.866,0.86,1.527,0.86
		c0.414,0,0.787-0.192,1.117-0.579c0.27-0.3,0.496-0.717,0.684-1.254l1.598,0.954c-0.26,0.873-0.706,1.581-1.342,2.123
		c-0.637,0.543-1.338,0.813-2.103,0.813c-1.097,0-2.03-0.448-2.8-1.347c-0.771-0.897-1.156-2.007-1.156-3.329
		c0-1.434,0.336-2.649,1.008-3.647c0.714-1.072,1.649-1.608,2.808-1.608c1.582,0,2.762,0.897,3.537,2.693L302.815,463.66z"/>
	<path d="M308.851,460.087c1.22,0,2.187,0.468,2.9,1.402c0.713,0.936,1.07,2.146,1.07,3.629c0,1.409-0.37,2.575-1.109,3.498
		S310.019,470,308.851,470c-1.221,0-2.201-0.495-2.94-1.486c-0.739-0.992-1.109-2.235-1.109-3.732c0-1.347,0.394-2.466,1.179-3.357
		C306.766,460.534,307.723,460.087,308.851,460.087z M308.927,467.962c0.631,0,1.117-0.303,1.459-0.907
		c0.342-0.605,0.512-1.288,0.512-2.049c0-0.785-0.188-1.468-0.566-2.048c-0.377-0.58-0.881-0.87-1.512-0.87
		c-0.652,0-1.174,0.3-1.567,0.898c-0.331,0.536-0.496,1.216-0.496,2.038c0,0.812,0.194,1.503,0.581,2.077
		C307.726,467.675,308.255,467.962,308.927,467.962z"/>
	<path d="M314.218,460.293h1.846v1.328c0.527-1.022,1.355-1.534,2.482-1.534v2.356h-0.094c-1.592,0-2.389,1.017-2.389,3.049v4.19
		h-1.846V460.293z"/>
	<path d="M319.353,460.349h1.908l-0.016,1.104c0.424-0.91,1.235-1.365,2.436-1.365c0.816,0,1.438,0.299,1.861,0.897
		s0.636,1.403,0.636,2.413v6.285h-1.877v-5.574c0-0.562-0.12-1.01-0.358-1.347c-0.219-0.361-0.557-0.543-1.014-0.543
		c-0.593,0-1.039,0.331-1.342,0.992c-0.229,0.549-0.342,1.209-0.342,1.982v4.489h-1.893V460.349z"/>
	<path d="M328.521,466.99c0.664,0.798,1.406,1.196,2.227,1.196c0.354,0,0.681-0.08,0.982-0.243c0.383-0.212,0.576-0.498,0.576-0.86
		c0-0.386-0.416-0.698-1.246-0.935c-1.266-0.35-2.033-0.605-2.303-0.768c-0.83-0.448-1.245-1.153-1.245-2.113
		c0-0.997,0.347-1.796,1.042-2.395c0.611-0.511,1.352-0.767,2.223-0.767c0.735,0,1.357,0.125,1.865,0.374
		c0.507,0.25,1.024,0.705,1.552,1.365l-1.303,1.44l-0.094-0.187c-0.436-0.811-1.095-1.216-1.977-1.216
		c-0.321,0-0.602,0.063-0.841,0.187c-0.342,0.149-0.514,0.393-0.514,0.729c0,0.475,0.42,0.823,1.258,1.048
		c1.334,0.337,2.119,0.567,2.357,0.691c0.838,0.438,1.256,1.179,1.256,2.227c0,1.035-0.387,1.87-1.163,2.506
		c-0.673,0.512-1.474,0.768-2.404,0.768c-1.334,0-2.555-0.574-3.661-1.722L328.521,466.99z"/>
	<path d="M335.423,467.139h2.063v2.544h-2.063V467.139z"/>
	<path d="M339.735,460.349l1.365,6.49c0.187-1.25,0.662-3.413,1.428-6.49h1.69l1.442,6.547c0.134-0.861,0.354-1.952,0.663-3.275
		l0.729-3.273l1.929,0.002l-2.373,9.408l-1.856,0.004l-1.405-6.231c-0.154,0.926-0.383,1.97-0.682,3.133l-0.791,3.095h-1.876
		l-2.232-9.408H339.735z"/>
	<path d="M350.191,456.608h1.877v2.245h-1.877V456.608z M350.191,460.312h1.877v9.408h-1.877V460.312z"/>
	<path d="M353.682,460.349h1.908l-0.016,1.104c0.424-0.91,1.235-1.365,2.436-1.365c0.817,0,1.438,0.299,1.861,0.897
		c0.425,0.599,0.636,1.403,0.636,2.413v6.285h-1.877v-5.574c0-0.562-0.119-1.01-0.358-1.347c-0.218-0.361-0.556-0.543-1.013-0.543
		c-0.594,0-1.04,0.331-1.342,0.992c-0.229,0.549-0.343,1.209-0.343,1.982v4.489h-1.893V460.349z"/>
</g>
</svg>
